<svg width="100" height="100" viewBox="0 0 100 100" fill="none" xmlns="http://www.w3.org/2000/svg">
<rect width="100" height="100" rx="50" fill="#FFEB3B"/>
<circle cx="50" cy="10" r="5" fill="#C4C4C4"/>
<path d="M31.4814 36.216C34.4334 36.216 36.7614 37.056 38.4654 38.736C40.1694 40.416 41.0214 42.312 41.0214 44.424C41.0214 46.512 40.0854 48.024 38.2134 48.96V49.212C38.4534 49.332 38.8014 49.596 39.2574 50.004C39.7374 50.388 40.1214 50.772 40.4094 51.156C41.2014 52.164 41.5974 53.316 41.5974 54.612C41.5974 57.18 40.6374 59.304 38.7174 60.984C36.7974 62.64 34.3854 63.468 31.4814 63.468C28.6014 63.468 26.2014 62.628 24.2814 60.948C23.5614 60.3 22.9254 59.448 22.3734 58.392C22.1814 58.008 22.0494 57.696 21.9774 57.456L21.9054 57.096C21.6414 56.304 21.5094 55.656 21.5094 55.152C21.5094 53.76 22.6854 53.064 25.0374 53.064C25.9974 53.064 26.6334 53.184 26.9454 53.424C27.3534 53.736 27.7134 54.36 28.0254 55.296C28.2654 56.064 28.9254 56.64 30.0054 57.024C30.4614 57.168 30.9654 57.24 31.5174 57.24C32.7894 57.24 33.7254 56.988 34.3254 56.484C34.9254 55.956 35.2254 55.368 35.2254 54.72C35.2254 54.072 34.9254 53.508 34.3254 53.028C33.7494 52.524 33.0534 52.272 32.2374 52.272C31.4454 52.272 30.9054 52.248 30.6174 52.2C30.3294 52.152 30.0174 52.032 29.6814 51.84C29.0334 51.528 28.7094 50.604 28.7094 49.068C28.7094 47.388 29.1534 46.392 30.0414 46.08C30.4494 45.96 31.0734 45.9 31.9134 45.9C33.7374 45.9 34.6494 45.432 34.6494 44.496C34.6494 43.992 34.4094 43.512 33.9294 43.056C33.4494 42.6 32.7774 42.372 31.9134 42.372C31.0734 42.372 30.4014 42.516 29.8974 42.804C29.3934 43.092 29.0814 43.38 28.9614 43.668L28.7454 44.1C28.1934 45.3 27.4014 45.9 26.3694 45.9C25.7694 45.9 25.1094 45.684 24.3894 45.252C23.1894 44.556 22.5894 43.752 22.5894 42.84C22.5894 42.456 22.8654 41.64 23.4174 40.392C23.5134 40.176 23.7774 39.804 24.2094 39.276C24.6414 38.724 25.1334 38.244 25.6854 37.836C26.2614 37.428 27.0534 37.056 28.0614 36.72C29.0934 36.384 30.2334 36.216 31.4814 36.216ZM56.8397 44.244C57.2957 44.388 57.6677 44.64 57.9557 45C58.2677 45.336 58.4237 45.888 58.4237 46.656C58.4237 47.424 58.1957 48.264 57.7397 49.176C57.2837 50.088 56.6237 50.544 55.7597 50.544C55.3277 50.544 54.9077 50.448 54.4997 50.256C54.1157 50.064 53.5997 49.968 52.9517 49.968C52.3037 49.968 51.6917 50.196 51.1157 50.652C50.5637 51.108 50.2877 51.66 50.2877 52.308V59.868C50.2877 60.42 50.2637 60.84 50.2157 61.128C50.1917 61.392 50.0837 61.704 49.8917 62.064C49.5317 62.688 48.5957 63 47.0837 63C45.9317 63 45.1037 62.796 44.5997 62.388C44.2157 62.052 43.9997 61.536 43.9517 60.84C43.9517 60.6 43.9517 60.252 43.9517 59.796V47.16C43.9517 46.608 43.9637 46.2 43.9877 45.936C44.0357 45.648 44.1437 45.336 44.3117 45C44.6477 44.352 45.5837 44.028 47.1197 44.028C48.5597 44.028 49.4597 44.304 49.8197 44.856C50.0837 45.24 50.2157 45.636 50.2157 46.044C50.3357 45.876 50.5037 45.672 50.7197 45.432C50.9597 45.192 51.4517 44.868 52.1957 44.46C52.9397 44.052 53.5877 43.848 54.1397 43.848C54.7157 43.848 55.1957 43.884 55.5797 43.956C55.9637 44.004 56.3837 44.1 56.8397 44.244ZM72.023 36.144C72.215 35.784 72.539 35.532 72.995 35.388C73.451 35.244 74.051 35.172 74.795 35.172C75.563 35.172 76.175 35.244 76.631 35.388C77.087 35.532 77.399 35.784 77.567 36.144C77.759 36.504 77.867 36.828 77.891 37.116C77.939 37.38 77.963 37.788 77.963 38.34V59.832C77.963 60.384 77.939 60.804 77.891 61.092C77.867 61.356 77.759 61.656 77.567 61.992C77.207 62.64 76.187 62.964 74.507 62.964C72.851 62.964 71.927 62.376 71.735 61.2C70.727 62.352 69.323 62.928 67.523 62.928C65.363 62.928 63.395 61.992 61.619 60.12C59.843 58.224 58.955 56.028 58.955 53.532C58.955 51.012 59.843 48.804 61.619 46.908C63.419 45.012 65.387 44.064 67.523 44.064C69.299 44.064 70.679 44.664 71.663 45.864V38.304C71.663 37.752 71.675 37.344 71.699 37.08C71.747 36.792 71.855 36.48 72.023 36.144ZM66.191 55.692C66.815 56.34 67.571 56.664 68.459 56.664C69.347 56.664 70.079 56.34 70.655 55.692C71.255 55.044 71.555 54.336 71.555 53.568C71.555 52.776 71.267 52.044 70.691 51.372C70.139 50.7 69.383 50.364 68.423 50.364C67.463 50.364 66.695 50.7 66.119 51.372C65.543 52.02 65.255 52.74 65.255 53.532C65.255 54.324 65.567 55.044 66.191 55.692Z" fill="black"/>
</svg>
