<svg width="100" height="100" viewBox="0 0 100 100" fill="none" xmlns="http://www.w3.org/2000/svg">
<rect width="100" height="100" rx="50" fill="#FFC107"/>
<circle cx="50" cy="10" r="5" fill="#C4C4C4"/>
<path d="M35.5734 56.664C36.5574 56.664 37.2534 56.784 37.6614 57.024C38.0934 57.24 38.3814 57.588 38.5254 58.068C38.6694 58.524 38.7414 59.136 38.7414 59.904C38.7414 60.648 38.6574 61.248 38.4894 61.704C38.3454 62.16 38.0934 62.472 37.7334 62.64C37.2054 62.928 36.4614 63.072 35.5014 63.072H21.4254C20.5614 63.072 19.8174 62.748 19.1934 62.1C18.5694 61.452 18.2574 60.696 18.2574 59.832C18.2574 58.536 18.7014 57.348 19.5894 56.268C20.5014 55.164 21.5934 54.228 22.8654 53.46C24.1374 52.668 25.4094 51.9 26.6814 51.156C27.9534 50.388 29.0334 49.524 29.9214 48.564C30.8334 47.604 31.2894 46.584 31.2894 45.504C31.2894 45.288 31.2054 44.988 31.0374 44.604C30.8694 44.196 30.6774 43.872 30.4614 43.632C30.2694 43.368 29.9574 43.128 29.5254 42.912C29.0934 42.696 28.4934 42.588 27.7254 42.588C26.9574 42.588 26.2854 42.876 25.7094 43.452C25.1574 44.004 24.8454 44.556 24.7734 45.108L24.6294 45.936V46.152C24.6294 46.68 24.6054 47.076 24.5574 47.34C24.5334 47.604 24.4254 47.904 24.2334 48.24C23.8734 48.816 22.9374 49.104 21.4254 49.104C19.7454 49.104 18.7494 48.648 18.4374 47.736C18.3174 47.352 18.2574 46.74 18.2574 45.9C18.2574 43.404 19.1454 41.172 20.9214 39.204C22.7214 37.212 25.0614 36.216 27.9414 36.216C30.8454 36.216 33.1974 37.224 34.9974 39.24C36.7974 41.232 37.6974 43.512 37.6974 46.08C37.6974 47.448 37.3974 48.744 36.7974 49.968C36.1974 51.192 35.4774 52.176 34.6374 52.92C32.8614 54.504 31.2774 55.572 29.8854 56.124L28.9854 56.484V56.664H35.5734ZM51.2829 44.028C53.6829 44.028 55.6749 44.952 57.2589 46.8C58.8669 48.624 59.6709 50.856 59.6709 53.496V59.832C59.6709 60.384 59.6469 60.804 59.5989 61.092C59.5749 61.356 59.4789 61.656 59.3109 61.992C58.9749 62.64 58.0389 62.964 56.5029 62.964C54.7989 62.964 53.8149 62.52 53.5509 61.632C53.4069 61.224 53.3349 60.612 53.3349 59.796V53.46C53.3349 52.476 53.0469 51.708 52.4709 51.156C51.9189 50.604 51.1629 50.328 50.2029 50.328C49.2669 50.328 48.4989 50.616 47.8989 51.192C47.3229 51.768 47.0349 52.524 47.0349 53.46V59.832C47.0349 60.384 47.0109 60.804 46.9629 61.092C46.9389 61.356 46.8309 61.656 46.6389 61.992C46.3269 62.64 45.4029 62.964 43.8669 62.964C42.3549 62.964 41.4309 62.64 41.0949 61.992C40.9269 61.632 40.8189 61.32 40.7709 61.056C40.7469 60.768 40.7349 60.348 40.7349 59.796V47.052C40.7349 46.524 40.7469 46.128 40.7709 45.864C40.8189 45.576 40.9389 45.264 41.1309 44.928C41.4669 44.328 42.3909 44.028 43.9029 44.028C45.3669 44.028 46.2669 44.304 46.6029 44.856C46.8429 45.264 46.9629 45.756 46.9629 46.332C47.0589 46.164 47.2749 45.924 47.6109 45.612C47.9469 45.3 48.2709 45.048 48.5829 44.856C49.3989 44.304 50.2989 44.028 51.2829 44.028ZM75.275 36.144C75.467 35.784 75.791 35.532 76.247 35.388C76.703 35.244 77.303 35.172 78.047 35.172C78.815 35.172 79.427 35.244 79.883 35.388C80.339 35.532 80.651 35.784 80.819 36.144C81.011 36.504 81.119 36.828 81.143 37.116C81.191 37.38 81.215 37.788 81.215 38.34V59.832C81.215 60.384 81.191 60.804 81.143 61.092C81.119 61.356 81.011 61.656 80.819 61.992C80.459 62.64 79.439 62.964 77.759 62.964C76.103 62.964 75.179 62.376 74.987 61.2C73.979 62.352 72.575 62.928 70.775 62.928C68.615 62.928 66.647 61.992 64.871 60.12C63.095 58.224 62.207 56.028 62.207 53.532C62.207 51.012 63.095 48.804 64.871 46.908C66.671 45.012 68.639 44.064 70.775 44.064C72.551 44.064 73.931 44.664 74.915 45.864V38.304C74.915 37.752 74.927 37.344 74.951 37.08C74.999 36.792 75.107 36.48 75.275 36.144ZM69.443 55.692C70.067 56.34 70.823 56.664 71.711 56.664C72.599 56.664 73.331 56.34 73.907 55.692C74.507 55.044 74.807 54.336 74.807 53.568C74.807 52.776 74.519 52.044 73.943 51.372C73.391 50.7 72.635 50.364 71.675 50.364C70.715 50.364 69.947 50.7 69.371 51.372C68.795 52.02 68.507 52.74 68.507 53.532C68.507 54.324 68.819 55.044 69.443 55.692Z" fill="black"/>
</svg>
