<svg width="100" height="100" viewBox="0 0 100 100" fill="none" xmlns="http://www.w3.org/2000/svg">
<rect width="100" height="100" rx="50" fill="#8BC34A"/>
<circle cx="50" cy="10" r="5" fill="#C4C4C4"/>
<path d="M34.2233 37.476C34.4153 37.14 34.7393 36.912 35.1953 36.792C35.6753 36.648 36.2873 36.576 37.0313 36.576C37.7993 36.576 38.4113 36.66 38.8673 36.828C39.3233 36.972 39.6473 37.224 39.8393 37.584C40.0313 37.92 40.1393 38.232 40.1633 38.52C40.2113 38.808 40.2353 39.228 40.2353 39.78V59.796C40.2353 60.732 40.1153 61.428 39.8753 61.884C39.6593 62.316 39.3113 62.604 38.8313 62.748C38.3753 62.892 37.7993 62.964 37.1033 62.964C36.4073 62.964 35.8553 62.904 35.4473 62.784C35.0393 62.664 34.7273 62.52 34.5113 62.352C34.2953 62.184 34.1393 61.944 34.0433 61.632C33.8993 61.224 33.8273 60.6 33.8273 59.76V55.368H24.0713C22.3913 55.368 21.3953 54.912 21.0833 54C20.9633 53.616 20.9033 53.1 20.9033 52.452C20.9033 51.804 20.9393 51.324 21.0113 51.012L23.9993 38.952C24.1433 38.4 24.2633 37.98 24.3593 37.692C24.4793 37.404 24.6953 37.128 25.0073 36.864C25.3433 36.6 25.7633 36.468 26.2673 36.468C26.7713 36.468 27.3233 36.552 27.9233 36.72C29.6033 37.176 30.4433 37.944 30.4433 39.024C30.4433 39.408 30.3593 39.912 30.1913 40.536C30.1673 40.584 30.1553 40.62 30.1553 40.644L27.9593 49.428H33.8273V39.6C33.8273 39.048 33.8393 38.64 33.8633 38.376C33.9113 38.112 34.0313 37.812 34.2233 37.476ZM54.124 50.4L51.784 50.256V55.224C51.784 55.872 51.88 56.34 52.072 56.628C52.288 56.916 52.672 57.06 53.224 57.06C53.8 57.06 54.232 57.084 54.52 57.132C54.832 57.156 55.156 57.264 55.492 57.456C56.044 57.768 56.32 58.572 56.32 59.868C56.32 61.38 55.984 62.304 55.312 62.64C54.952 62.808 54.628 62.916 54.34 62.964C54.076 62.988 53.68 63 53.152 63C50.656 63 48.76 62.436 47.464 61.308C46.168 60.18 45.52 58.272 45.52 55.584V50.256C45.064 50.328 44.572 50.364 44.044 50.364C43.516 50.364 43.072 50.16 42.712 49.752C42.376 49.344 42.208 48.648 42.208 47.664C42.208 46.68 42.268 45.972 42.388 45.54C42.508 45.084 42.676 44.76 42.892 44.568C43.276 44.256 43.756 44.1 44.332 44.1L45.52 44.244V40.536C45.52 39.984 45.532 39.576 45.556 39.312C45.604 39.048 45.724 38.76 45.916 38.448C46.228 37.848 47.152 37.548 48.688 37.548C50.32 37.548 51.292 37.992 51.604 38.88C51.724 39.264 51.784 39.876 51.784 40.716V44.244C52.84 44.148 53.632 44.1 54.16 44.1C54.712 44.1 55.12 44.124 55.384 44.172C55.672 44.196 55.996 44.304 56.356 44.496C56.98 44.808 57.292 45.732 57.292 47.268C57.292 48.78 56.968 49.704 56.32 50.04C55.96 50.208 55.636 50.316 55.348 50.364C55.084 50.388 54.676 50.4 54.124 50.4ZM69.7918 44.1C72.1918 44.1 74.1838 45.012 75.7678 46.836C77.3758 48.66 78.1798 50.892 78.1798 53.532V59.868C78.1798 60.42 78.1558 60.84 78.1078 61.128C78.0838 61.392 77.9758 61.704 77.7838 62.064C77.4718 62.688 76.5478 63 75.0118 63C73.5478 63 72.6358 62.688 72.2758 62.064C72.0838 61.704 71.9638 61.38 71.9158 61.092C71.8918 60.804 71.8798 60.372 71.8798 59.796V53.496C71.8798 52.512 71.6038 51.744 71.0518 51.192C70.4998 50.64 69.7918 50.364 68.9278 50.364C68.0878 50.364 67.3438 50.628 66.6958 51.156C66.0478 51.66 65.6758 52.236 65.5798 52.884V59.868C65.5798 60.42 65.5558 60.84 65.5078 61.128C65.4838 61.392 65.3758 61.704 65.1838 62.064C64.8718 62.688 63.9478 63 62.4118 63C60.8998 63 59.9758 62.676 59.6398 62.028C59.4718 61.668 59.3638 61.356 59.3158 61.092C59.2918 60.828 59.2798 60.408 59.2798 59.832V38.304C59.2798 37.752 59.2918 37.344 59.3158 37.08C59.3638 36.792 59.4718 36.48 59.6398 36.144C59.9758 35.496 60.9118 35.172 62.4478 35.172C63.9598 35.172 64.8718 35.496 65.1838 36.144C65.3758 36.504 65.4838 36.828 65.5078 37.116C65.5558 37.38 65.5798 37.788 65.5798 38.34V46.296C66.7798 44.832 68.1838 44.1 69.7918 44.1Z" fill="black"/>
</svg>
