<svg width="100" height="100" viewBox="0 0 100 100" fill="none" xmlns="http://www.w3.org/2000/svg">
<rect width="100" height="100" rx="50" fill="#F44336"/>
<path d="M33.9066 37.512C34.5306 36.888 35.2026 36.576 35.9226 36.576C36.6666 36.576 37.2426 36.636 37.6506 36.756C38.0586 36.876 38.3706 37.02 38.5866 37.188C38.8026 37.332 38.9706 37.584 39.0906 37.944C39.2106 38.352 39.2706 38.988 39.2706 39.852V59.904C39.2706 60.456 39.2466 60.876 39.1986 61.164C39.1746 61.428 39.0666 61.74 38.8746 62.1C38.5386 62.748 37.6026 63.072 36.0666 63.072C34.5786 63.072 33.6546 62.76 33.2946 62.136C33.1026 61.776 32.9826 61.452 32.9346 61.164C32.9106 60.852 32.8986 60.408 32.8986 59.832V46.98L32.4306 47.412C31.4466 48.156 30.6066 48.528 29.9106 48.528C29.2146 48.528 28.4826 48.108 27.7146 47.268C26.9706 46.428 26.5986 45.684 26.5986 45.036C26.5986 44.388 27.0306 43.68 27.8946 42.912L33.7986 37.584L33.9066 37.512ZM42.3028 61.308C41.8468 61.02 41.6188 60.564 41.6188 59.94C41.6188 59.316 42.0748 58.368 42.9868 57.096C43.2508 56.688 43.6708 56.484 44.2468 56.484C44.8468 56.484 45.6508 56.784 46.6588 57.384C47.6668 57.96 48.5788 58.248 49.3948 58.248C50.8588 58.248 51.5908 57.96 51.5908 57.384C51.5908 56.928 50.7868 56.592 49.1788 56.376C47.6668 56.16 46.1668 55.596 44.6788 54.684C43.9828 54.252 43.4068 53.58 42.9508 52.668C42.4948 51.732 42.2668 50.628 42.2668 49.356C42.2668 45.564 44.8708 43.668 50.0788 43.668C51.7828 43.668 53.5348 44.076 55.3348 44.892C56.1748 45.276 56.5948 45.756 56.5948 46.332C56.5948 46.908 56.3308 47.616 55.8028 48.456C55.2748 49.296 54.7348 49.716 54.1828 49.716C53.8948 49.716 53.3548 49.536 52.5628 49.176C51.7948 48.816 50.9548 48.636 50.0428 48.636C48.6268 48.636 47.9188 48.9 47.9188 49.428C47.9188 50.148 48.7348 50.616 50.3668 50.832C51.9508 51 53.4868 51.456 54.9748 52.2C55.6708 52.536 56.2468 53.124 56.7028 53.964C57.1828 54.78 57.4228 55.812 57.4228 57.06C57.4228 58.308 57.1828 59.376 56.7028 60.264C56.2468 61.128 55.5988 61.776 54.7588 62.208C53.2228 62.952 51.2908 63.324 48.9628 63.324C46.6588 63.324 44.4388 62.652 42.3028 61.308ZM70.2255 50.4L67.8855 50.256V55.224C67.8855 55.872 67.9815 56.34 68.1735 56.628C68.3895 56.916 68.7735 57.06 69.3255 57.06C69.9015 57.06 70.3335 57.084 70.6215 57.132C70.9335 57.156 71.2575 57.264 71.5935 57.456C72.1455 57.768 72.4215 58.572 72.4215 59.868C72.4215 61.38 72.0855 62.304 71.4135 62.64C71.0535 62.808 70.7295 62.916 70.4415 62.964C70.1775 62.988 69.7815 63 69.2535 63C66.7575 63 64.8615 62.436 63.5655 61.308C62.2695 60.18 61.6215 58.272 61.6215 55.584V50.256C61.1655 50.328 60.6735 50.364 60.1455 50.364C59.6175 50.364 59.1735 50.16 58.8135 49.752C58.4775 49.344 58.3095 48.648 58.3095 47.664C58.3095 46.68 58.3695 45.972 58.4895 45.54C58.6095 45.084 58.7775 44.76 58.9935 44.568C59.3775 44.256 59.8575 44.1 60.4335 44.1L61.6215 44.244V40.536C61.6215 39.984 61.6335 39.576 61.6575 39.312C61.7055 39.048 61.8255 38.76 62.0175 38.448C62.3295 37.848 63.2535 37.548 64.7895 37.548C66.4215 37.548 67.3935 37.992 67.7055 38.88C67.8255 39.264 67.8855 39.876 67.8855 40.716V44.244C68.9415 44.148 69.7335 44.1 70.2615 44.1C70.8135 44.1 71.2215 44.124 71.4855 44.172C71.7735 44.196 72.0975 44.304 72.4575 44.496C73.0815 44.808 73.3935 45.732 73.3935 47.268C73.3935 48.78 73.0695 49.704 72.4215 50.04C72.0615 50.208 71.7375 50.316 71.4495 50.364C71.1855 50.388 70.7775 50.4 70.2255 50.4Z" fill="black"/>
<circle cx="50" cy="10" r="5" fill="#C4C4C4"/>
</svg>
