<svg width="100" height="100" viewBox="0 0 100 100" fill="none" xmlns="http://www.w3.org/2000/svg">
<rect width="100" height="100" rx="50" fill="#2196F3"/>
<circle cx="50" cy="10" r="5" fill="#C4C4C4"/>
<path d="M27.0867 36.54L32.5587 36.576H35.9427C36.5187 36.576 36.9387 36.6 37.2027 36.648C37.4667 36.672 37.7787 36.78 38.1387 36.972C38.7867 37.308 39.1107 38.268 39.1107 39.852C39.1107 41.292 38.8107 42.168 38.2107 42.48C37.8747 42.672 37.5747 42.792 37.3107 42.84C37.0707 42.864 36.6867 42.876 36.1587 42.876H29.8587C29.8107 43.164 29.6907 44.076 29.4987 45.612C29.7627 45.564 30.1827 45.54 30.7587 45.54C33.0387 45.54 35.0907 46.404 36.9147 48.132C38.7387 49.836 39.6507 51.936 39.6507 54.432C39.6507 56.904 38.7867 59.04 37.0587 60.84C35.3307 62.616 33.1827 63.504 30.6147 63.504C28.3827 63.504 26.3667 62.94 24.5667 61.812C24.1587 61.548 23.8587 61.32 23.6667 61.128L23.3787 60.876C22.4667 60.084 22.0107 59.364 22.0107 58.716C22.0107 58.068 22.4547 57.288 23.3427 56.376C24.0627 55.584 24.7587 55.188 25.4307 55.188C26.1027 55.188 26.9067 55.572 27.8427 56.34C28.2747 56.844 29.0187 57.096 30.0747 57.096C31.1547 57.096 31.9467 56.868 32.4507 56.412C32.9787 55.956 33.2427 55.332 33.2427 54.54C33.2427 53.724 32.9547 53.088 32.3787 52.632C31.8267 52.152 31.1907 51.912 30.4707 51.912C29.7507 51.912 29.1747 52.128 28.7427 52.56C28.0947 53.112 27.4347 53.388 26.7627 53.388C26.1147 53.388 25.3587 53.16 24.4947 52.704C23.6547 52.248 23.1027 51.888 22.8387 51.624C22.5747 51.336 22.4427 51.036 22.4427 50.724C22.4427 50.412 22.6827 48.48 23.1627 44.928C23.6427 41.376 23.8947 39.528 23.9187 39.384C23.9427 39.24 24.0267 38.988 24.1707 38.628C24.3147 38.268 24.4827 37.944 24.6747 37.656C24.8907 37.368 25.2027 37.116 25.6107 36.9C26.0427 36.66 26.5347 36.54 27.0867 36.54ZM53.0165 50.4L50.6765 50.256V55.224C50.6765 55.872 50.7725 56.34 50.9645 56.628C51.1805 56.916 51.5645 57.06 52.1165 57.06C52.6925 57.06 53.1245 57.084 53.4125 57.132C53.7245 57.156 54.0485 57.264 54.3845 57.456C54.9365 57.768 55.2125 58.572 55.2125 59.868C55.2125 61.38 54.8765 62.304 54.2045 62.64C53.8445 62.808 53.5205 62.916 53.2325 62.964C52.9685 62.988 52.5725 63 52.0445 63C49.5485 63 47.6525 62.436 46.3565 61.308C45.0605 60.18 44.4125 58.272 44.4125 55.584V50.256C43.9565 50.328 43.4645 50.364 42.9365 50.364C42.4085 50.364 41.9645 50.16 41.6045 49.752C41.2685 49.344 41.1005 48.648 41.1005 47.664C41.1005 46.68 41.1605 45.972 41.2805 45.54C41.4005 45.084 41.5685 44.76 41.7845 44.568C42.1685 44.256 42.6485 44.1 43.2245 44.1L44.4125 44.244V40.536C44.4125 39.984 44.4245 39.576 44.4485 39.312C44.4965 39.048 44.6165 38.76 44.8085 38.448C45.1205 37.848 46.0445 37.548 47.5805 37.548C49.2125 37.548 50.1845 37.992 50.4965 38.88C50.6165 39.264 50.6765 39.876 50.6765 40.716V44.244C51.7325 44.148 52.5245 44.1 53.0525 44.1C53.6045 44.1 54.0125 44.124 54.2765 44.172C54.5645 44.196 54.8885 44.304 55.2485 44.496C55.8725 44.808 56.1845 45.732 56.1845 47.268C56.1845 48.78 55.8605 49.704 55.2125 50.04C54.8525 50.208 54.5285 50.316 54.2405 50.364C53.9765 50.388 53.5685 50.4 53.0165 50.4ZM68.6844 44.1C71.0844 44.1 73.0764 45.012 74.6604 46.836C76.2684 48.66 77.0724 50.892 77.0724 53.532V59.868C77.0724 60.42 77.0484 60.84 77.0004 61.128C76.9764 61.392 76.8684 61.704 76.6764 62.064C76.3644 62.688 75.4404 63 73.9044 63C72.4404 63 71.5284 62.688 71.1684 62.064C70.9764 61.704 70.8564 61.38 70.8084 61.092C70.7844 60.804 70.7724 60.372 70.7724 59.796V53.496C70.7724 52.512 70.4964 51.744 69.9444 51.192C69.3924 50.64 68.6844 50.364 67.8204 50.364C66.9804 50.364 66.2364 50.628 65.5884 51.156C64.9404 51.66 64.5684 52.236 64.4724 52.884V59.868C64.4724 60.42 64.4484 60.84 64.4004 61.128C64.3764 61.392 64.2684 61.704 64.0764 62.064C63.7644 62.688 62.8404 63 61.3044 63C59.7924 63 58.8684 62.676 58.5324 62.028C58.3644 61.668 58.2564 61.356 58.2084 61.092C58.1844 60.828 58.1724 60.408 58.1724 59.832V38.304C58.1724 37.752 58.1844 37.344 58.2084 37.08C58.2564 36.792 58.3644 36.48 58.5324 36.144C58.8684 35.496 59.8044 35.172 61.3404 35.172C62.8524 35.172 63.7644 35.496 64.0764 36.144C64.2684 36.504 64.3764 36.828 64.4004 37.116C64.4484 37.38 64.4724 37.788 64.4724 38.34V46.296C65.6724 44.832 67.0764 44.1 68.6844 44.1Z" fill="black"/>
</svg>
